<svg width="102" height="290" viewBox="0 0 102 290" fill="none" xmlns="http://www.w3.org/2000/svg">
<rect width="4.24559" height="12.1452" fill="black" fill-opacity="0" transform="scale(23.8777)"/>
<rect width="4.24559" height="12.1452" fill="black" fill-opacity="0" transform="scale(23.8777)"/>
<path d="M57.5932 224.139C42.6322 242.837 30.0383 253.539 13.4433 266.122V204.17C17.2159 194.643 22.7794 186.931 30.1576 181.009C37.512 175.111 44.9619 172.15 52.5073 172.15C87.7474 177.264 75.406 207.218 57.5932 224.139ZM13.4433 173.631V0H0V277.392C0 285.797 2.29231 290 6.87684 290C9.52727 290 12.8204 287.779 17.7413 284.842C51.2157 264.227 72.7196 247.537 94.1937 218.091C100.832 208.987 105.527 188.343 95.9161 173.925C89.9228 164.933 78.502 155.489 63.8645 152.697C44.9163 149.083 28.576 158.518 13.4433 173.631Z" fill="black"/>
</svg>
