<?xml version="1.0" encoding="UTF-8" standalone="no"?>
<!-- Created with Inkscape (http://www.inkscape.org/) -->

<svg
   xmlns:dc="http://purl.org/dc/elements/1.1/"
   xmlns:cc="http://creativecommons.org/ns#"
   xmlns:rdf="http://www.w3.org/1999/02/22-rdf-syntax-ns#"
   xmlns:svg="http://www.w3.org/2000/svg"
   xmlns="http://www.w3.org/2000/svg"
   xmlns:sodipodi="http://sodipodi.sourceforge.net/DTD/sodipodi-0.dtd"
   xmlns:inkscape="http://www.inkscape.org/namespaces/inkscape"
   width="12"
   height="60"
   viewBox="24 0 12 60"
   version="1.1"
   id="SVGRoot"
   inkscape:version="0.92.4 (5da689c313, 2019-01-14)"
   sodipodi:docname="sharp.svg">
  <defs
     id="defs3793" />
  <sodipodi:namedview
     id="base"
     pagecolor="#ffffff"
     bordercolor="#666666"
     borderopacity="1.0"
     inkscape:pageopacity="0.0"
     inkscape:pageshadow="2"
     inkscape:zoom="24.135911"
     inkscape:cx="3.9567875"
     inkscape:cy="28.034819"
     inkscape:document-units="px"
     inkscape:current-layer="layer9"
     showgrid="false"
     inkscape:window-width="958"
     inkscape:window-height="1008"
     inkscape:window-x="2873"
     inkscape:window-y="0"
     inkscape:window-maximized="0"
     inkscape:lockguides="false"
     showguides="true"
     inkscape:guide-bbox="true"
     inkscape:snap-to-guides="false"
     inkscape:snap-grids="false">
    <sodipodi:guide
       position="29.996795,26.847961"
       orientation="1,0"
       id="guide3806"
       inkscape:locked="false" />
    <sodipodi:guide
       position="-33.228494,29.996795"
       orientation="0,1"
       id="guide3808"
       inkscape:locked="false" />
    <sodipodi:guide
       position="22.829053,35.010072"
       orientation="0,1"
       id="guide3810"
       inkscape:locked="false" />
    <sodipodi:guide
       position="21.54466,25.066383"
       orientation="0,1"
       id="guide3812"
       inkscape:locked="false" />
    <sodipodi:guide
       position="27.993164,36.298828"
       orientation="1,0"
       id="guide3910"
       inkscape:locked="false" />
    <sodipodi:guide
       position="32.006836,35.698242"
       orientation="1,0"
       id="guide3912"
       inkscape:locked="false" />
    <sodipodi:guide
       position="1.9887379,42.799296"
       orientation="1,0"
       id="guide14"
       inkscape:locked="false" />
    <sodipodi:guide
       position="9.9436893,41.763495"
       orientation="1,0"
       id="guide16"
       inkscape:locked="false" />
  </sodipodi:namedview>
  <metadata
     id="metadata3796">
    <rdf:RDF>
      <cc:Work
         rdf:about="">
        <dc:format>image/svg+xml</dc:format>
        <dc:type
           rdf:resource="http://purl.org/dc/dcmitype/StillImage" />
        <dc:title />
      </cc:Work>
    </rdf:RDF>
  </metadata>
  <g
     inkscape:groupmode="layer"
     id="layer9"
     inkscape:label="Ebene 2">
    <path
       d="m 33.240217,32.756023 c 0,0.134183 -0.01917,0.191679 -0.172513,0.230016 l -1.456777,0.460033 v 3.354422 c 0,0.153336 -0.383363,0.287519 -0.632546,0.230015 0,-0.881731 -0.01917,-2.070155 -0.01917,-3.392755 l -1.93598,0.613379 v 3.507766 c 0,0.153337 -0.383362,0.268356 -0.632547,0.230016 0,-0.920069 -0.01916,-2.165995 -0.01916,-3.546099 l -1.303432,0.402529 c -0.21085,0.05751 -0.325857,0 -0.325857,-0.230018 v -1.782635 c 0,-0.115001 0.03834,-0.153335 0.172512,-0.191679 l 1.437608,-0.440867 c -0.01916,-1.188424 -0.03834,-2.396015 -0.03834,-3.565268 l -1.245924,0.383362 c -0.210849,0.05751 -0.325858,0 -0.325858,-0.230017 v -1.782637 c 0,-0.115 0.03834,-0.172511 0.172515,-0.210846 l 1.380102,-0.421699 c -0.01917,-1.360935 -0.01917,-2.54936 -0.01917,-3.335252 0,-0.345025 0.4217,-0.498372 0.881734,-0.345025 -0.03834,0.670883 -0.05751,1.91681 -0.07665,3.450259 l 1.763468,-0.555874 c -0.01917,-1.418443 -0.01917,-2.664369 -0.01917,-3.469429 0,-0.383362 0.460034,-0.498372 0.900901,-0.383362 -0.03834,0.690052 -0.05751,2.012649 -0.07667,3.603603 l 1.341768,-0.40253 c 0.172512,-0.05751 0.249185,0 0.249185,0.172515 v 1.801801 c 0,0.153351 -0.01916,0.172514 -0.172513,0.230017 l -1.437618,0.440867 c 0,1.188424 -0.01916,2.415183 -0.01916,3.622775 l 1.380102,-0.440867 c 0.172514,-0.05751 0.249186,0 0.249186,0.172512 z m -2.319341,-1.341769 -0.03834,-3.584438 -1.840138,0.575044 c 0,1.169256 0,2.396016 -0.01916,3.584438 z"
       id="path44"
       inkscape:connector-curvature="0"
       style="stroke-width:0.01916813" />
  </g>
</svg>
