<?xml version="1.0" encoding="UTF-8" standalone="no"?>
<!-- Created with Inkscape (http://www.inkscape.org/) -->

<svg
   xmlns:dc="http://purl.org/dc/elements/1.1/"
   xmlns:cc="http://creativecommons.org/ns#"
   xmlns:rdf="http://www.w3.org/1999/02/22-rdf-syntax-ns#"
   xmlns:svg="http://www.w3.org/2000/svg"
   xmlns="http://www.w3.org/2000/svg"
   xmlns:sodipodi="http://sodipodi.sourceforge.net/DTD/sodipodi-0.dtd"
   xmlns:inkscape="http://www.inkscape.org/namespaces/inkscape"
   width="12"
   height="60"
   viewBox="24 0 12 60"
   version="1.1"
   id="SVGRoot"
   inkscape:version="0.92.4 (5da689c313, 2019-01-14)"
   sodipodi:docname="strophicus.svg">
  <defs
     id="defs3793" />
  <sodipodi:namedview
     id="base"
     pagecolor="#ffffff"
     bordercolor="#666666"
     borderopacity="1.0"
     inkscape:pageopacity="0.0"
     inkscape:pageshadow="2"
     inkscape:zoom="22.627417"
     inkscape:cx="21.165627"
     inkscape:cy="29.59699"
     inkscape:document-units="px"
     inkscape:current-layer="layer10"
     showgrid="false"
     inkscape:window-width="1920"
     inkscape:window-height="1017"
     inkscape:window-x="1912"
     inkscape:window-y="-8"
     inkscape:window-maximized="1"
     inkscape:lockguides="false"
     showguides="true"
     inkscape:guide-bbox="true"
     inkscape:snap-to-guides="false"
     inkscape:snap-grids="false">
    <sodipodi:guide
       position="29.996795,26.847961"
       orientation="1,0"
       id="guide3806"
       inkscape:locked="false" />
    <sodipodi:guide
       position="-33.228494,29.996795"
       orientation="0,1"
       id="guide3808"
       inkscape:locked="false" />
    <sodipodi:guide
       position="15.24699,35.001786"
       orientation="0,1"
       id="guide3810"
       inkscape:locked="false" />
    <sodipodi:guide
       position="13.965359,25.013902"
       orientation="0,1"
       id="guide3812"
       inkscape:locked="false" />
    <sodipodi:guide
       position="27,35.359375"
       orientation="1,0"
       id="guide3910"
       inkscape:locked="false" />
    <sodipodi:guide
       position="33,35.40625"
       orientation="1,0"
       id="guide3912"
       inkscape:locked="false" />
  </sodipodi:namedview>
  <metadata
     id="metadata3796">
    <rdf:RDF>
      <cc:Work
         rdf:about="">
        <dc:format>image/svg+xml</dc:format>
        <dc:type
           rdf:resource="http://purl.org/dc/dcmitype/StillImage" />
        <dc:title></dc:title>
      </cc:Work>
    </rdf:RDF>
  </metadata>
  <g
     inkscape:groupmode="layer"
     id="layer10"
     inkscape:label="Ebene 2">
    <path
       style="fill:#000000;fill-opacity:0;stroke-width:0.04143204"
       d="m 25.01637,39.951822 c -0.353153,-0.0736 -0.510708,-0.208826 -0.510708,-0.438314 0,-0.07091 0.410392,-0.83157 1.113554,-2.063968 2.065526,-3.62015 2.984598,-5.397636 3.386043,-6.548609 0.204631,-0.586695 0.221806,-0.817451 0.08145,-1.094425 -0.268178,-0.529225 -1.009029,-1.101763 -3.006631,-2.323561 -1.605363,-0.98189 -2.225032,-1.437879 -2.345351,-1.725844 -0.04071,-0.09743 -0.0434,-0.169456 -0.01084,-0.29053 0.314859,-1.170954 3.570921,-4.258107 5.468489,-5.18481 0.664714,-0.324622 0.974136,-0.334641 1.633586,-0.05289 1.811657,0.774025 4.939675,3.102157 5.922604,4.408098 0.29108,0.386734 0.391821,0.614282 0.392957,0.887585 0.0037,0.88143 -1.428073,3.291894 -3.924811,6.607794 -2.720053,3.612483 -5.855617,7.089418 -6.845926,7.591245 -0.39415,0.199731 -1.000736,0.301946 -1.354417,0.228232 z"
       id="path21"
       inkscape:connector-curvature="0" />
    <path
       style="fill:#000000;fill-opacity:1;stroke-width:0.01563728"
       d="m 27.272624,34.965072 c -0.0819,-0.02615 -0.173457,-0.121087 -0.173457,-0.179871 0,-0.03932 0.165964,-0.391875 0.218669,-0.464511 0.0062,-0.0086 0.03803,-0.0649 0.07065,-0.125098 0.03261,-0.0602 0.203634,-0.362785 0.380046,-0.672404 0.176412,-0.309617 0.341756,-0.601644 0.367432,-0.648947 0.02567,-0.0473 0.05187,-0.09304 0.05822,-0.101642 0.04329,-0.05867 0.455513,-0.839732 0.672625,-1.274438 0.436287,-0.873541 0.544221,-1.141505 0.557423,-1.383899 l 0.0077,-0.140736 -0.06003,-0.09708 c -0.12918,-0.208932 -0.34167,-0.393423 -0.818431,-0.710591 -0.153976,-0.102434 -0.375736,-0.242576 -1.000784,-0.632453 -0.337061,-0.210242 -0.579529,-0.384186 -0.708542,-0.5083 l -0.139811,-0.134501 0.0066,-0.100058 c 0.0109,-0.165491 0.111809,-0.346394 0.378554,-0.678638 0.134184,-0.167133 0.73711,-0.781662 0.961166,-0.979663 0.623282,-0.550803 1.242229,-0.969469 1.628712,-1.101685 0.145063,-0.04962 0.304389,-0.03943 0.492574,0.03154 0.470415,0.177392 1.278602,0.678119 1.995255,1.236198 0.312209,0.243125 0.550965,0.454742 0.806043,0.714421 0.418658,0.426207 0.519744,0.651748 0.427937,0.954806 -0.171979,0.567708 -0.836754,1.643074 -1.858748,3.006791 -0.3315,0.442344 -1.1799,1.517065 -1.252945,1.587184 -0.0045,0.0043 -0.0609,0.07107 -0.125392,0.148386 -0.756127,0.906521 -1.56734,1.760895 -1.941401,2.044697 -0.111463,0.08457 -0.317609,0.180329 -0.44741,0.207836 -0.122144,0.02589 -0.424829,0.02749 -0.502606,0.0027 z"
       id="path97"
       inkscape:connector-curvature="0" />
  </g>
</svg>
