<svg xmlns="http://www.w3.org/2000/svg" viewBox="0 0 86.3 16.23"><defs><style>.cls-1{fill:#335860;}</style></defs><title>monodi+</title><g id="Ebene_2" data-name="Ebene 2"><g id="Ebene_1-2" data-name="Ebene 1"><g id="monodi_" data-name="monodi+"><path class="cls-1" d="M2.75,15.92H0V4.86H2.75v.83l.14-.13L3,5.43a2.31,2.31,0,0,1,.53-.34c.22-.11.45-.21.7-.31A4.22,4.22,0,0,1,5,4.61a4.68,4.68,0,0,1,.76-.06,4.9,4.9,0,0,1,1.5.22,3.13,3.13,0,0,1,1.17.65l.35.35a3.35,3.35,0,0,1,.29.4c.11-.12.22-.25.35-.37s.25-.24.38-.35L10,5.28l.31-.18.34-.17L11,4.78a3.85,3.85,0,0,1,.65-.17,4.32,4.32,0,0,1,.73-.06,5,5,0,0,1,1,.11,4.37,4.37,0,0,1,.92.34,3.41,3.41,0,0,1,.75.54,2.77,2.77,0,0,1,.54.73A4,4,0,0,1,16,7.41,10.81,10.81,0,0,1,16.09,9v6.9H13.33V9.78a7.9,7.9,0,0,0-.2-2.4,1.84,1.84,0,0,0-.46-.75A1.31,1.31,0,0,0,12,6.38a1.41,1.41,0,0,0-.57.13,2.83,2.83,0,0,0-.65.36,2.38,2.38,0,0,0-.48.51,5,5,0,0,0-.47.81,5.73,5.73,0,0,0-.36,2.35v5.38H6.67V9.78a9.9,9.9,0,0,0-.17-2.4,2.76,2.76,0,0,0-.25-.49A.67.67,0,0,0,6,6.63a1.63,1.63,0,0,0-.75-.26,1.32,1.32,0,0,0-.53.13,3,3,0,0,0-.65.38,2.88,2.88,0,0,0-.5.53,4.8,4.8,0,0,0-.48.82,5.61,5.61,0,0,0-.36,2.31Z"/><path class="cls-1" d="M23.84,16.23a6.26,6.26,0,0,1-2.2-.41,5.3,5.3,0,0,1-1-.46,5.63,5.63,0,0,1-.82-.61,5.47,5.47,0,0,1-1.21-1.9,6.69,6.69,0,0,1-.44-2.46,6.69,6.69,0,0,1,.44-2.46A5.43,5.43,0,0,1,19.86,6,5.51,5.51,0,0,1,21.64,5a5.89,5.89,0,0,1,2.2-.4A6.06,6.06,0,0,1,26,5,5.2,5.2,0,0,1,27.81,6,5.73,5.73,0,0,1,29,7.93a6.69,6.69,0,0,1,.43,2.46,5.81,5.81,0,0,1-1.64,4.36A5.53,5.53,0,0,1,23.84,16.23Zm0-1.67a2.5,2.5,0,0,0,2-1.13,4.89,4.89,0,0,0,.81-3,4.84,4.84,0,0,0-.81-3,2.47,2.47,0,0,0-2-1.13,2,2,0,0,0-1.06.31,3.45,3.45,0,0,0-.94.82h0a3.85,3.85,0,0,0-.58,1.29,6.69,6.69,0,0,0-.21,1.74,7.05,7.05,0,0,0,.2,1.74,4.21,4.21,0,0,0,.59,1.3h0a3.45,3.45,0,0,0,.94.82A2,2,0,0,0,23.84,14.56Z"/><path class="cls-1" d="M34.47,15.92H31.72V4.86h2.75v.88l.17-.16.18-.14a4.43,4.43,0,0,1,2.75-.88,5.13,5.13,0,0,1,1.12.12,4.36,4.36,0,0,1,1,.34,4.27,4.27,0,0,1,.82.53,3.33,3.33,0,0,1,.59.71,3.76,3.76,0,0,1,.38,1.12,7.83,7.83,0,0,1,.13,1.52v7H38.84V9.68a8.09,8.09,0,0,0-.17-2,1.59,1.59,0,0,0-.57-.91,3,3,0,0,0-.51-.25,1.35,1.35,0,0,0-.47-.09,1.77,1.77,0,0,0-.6.12,3.85,3.85,0,0,0-.67.34,2.28,2.28,0,0,0-.5.49,5.14,5.14,0,0,0-.5.79,3.42,3.42,0,0,0-.29,1,9.49,9.49,0,0,0-.09,1.4Z"/><path class="cls-1" d="M49.35,16.23a6.26,6.26,0,0,1-2.2-.41,5.3,5.3,0,0,1-1-.46,5.63,5.63,0,0,1-.82-.61,5.47,5.47,0,0,1-1.21-1.9,6.69,6.69,0,0,1-.44-2.46,6.69,6.69,0,0,1,.44-2.46A5.43,5.43,0,0,1,45.37,6,5.51,5.51,0,0,1,47.15,5a5.89,5.89,0,0,1,2.2-.4,6.06,6.06,0,0,1,2.2.39A5.06,5.06,0,0,1,53.31,6a5.43,5.43,0,0,1,1.21,1.89A6.49,6.49,0,0,1,55,10.39a5.78,5.78,0,0,1-1.65,4.36A5.5,5.5,0,0,1,49.35,16.23Zm0-1.67a2.51,2.51,0,0,0,2-1.13,4.9,4.9,0,0,0,.8-3,4.84,4.84,0,0,0-.8-3,2.48,2.48,0,0,0-2-1.13,2,2,0,0,0-1.06.31,3.45,3.45,0,0,0-.94.82h0a3.85,3.85,0,0,0-.58,1.29,6.69,6.69,0,0,0-.21,1.74,6.6,6.6,0,0,0,.2,1.74,4.21,4.21,0,0,0,.59,1.3h0a3.45,3.45,0,0,0,.94.82A2,2,0,0,0,49.35,14.56Z"/><path class="cls-1" d="M64.73,0h2.75V15.92H64.73v-.73c-.1.1-.21.19-.33.29a2.52,2.52,0,0,1-.59.32,5,5,0,0,1-.77.26q-.33.07-.69.12a5.84,5.84,0,0,1-.73.05A4.66,4.66,0,0,1,60.26,16a4.49,4.49,0,0,1-1.16-.51A5.08,5.08,0,0,1,58,14.6a4.36,4.36,0,0,1-.72-1.12A8.53,8.53,0,0,1,56.86,12,7.81,7.81,0,0,1,57,8.17a7.26,7.26,0,0,1,1-1.93A4.22,4.22,0,0,1,59.55,5a5.13,5.13,0,0,1,2.17-.44,4.92,4.92,0,0,1,1.51.22,3.79,3.79,0,0,1,1.19.59l.16.13.15.14Zm0,10.38a5.22,5.22,0,0,0-.73-3,2.19,2.19,0,0,0-1.85-1.16,2.43,2.43,0,0,0-1.85,1,4.87,4.87,0,0,0-.77,3.1,10.07,10.07,0,0,0,.19,2.09,3.09,3.09,0,0,0,.54,1.26,3,3,0,0,0,.87.69,2.08,2.08,0,0,0,1,.24,2.3,2.3,0,0,0,1.34-.51,1.8,1.8,0,0,0,.51-.59,6.05,6.05,0,0,0,.43-.92,8.3,8.3,0,0,0,.25-1.06A7.7,7.7,0,0,0,64.73,10.38Z"/><path class="cls-1" d="M70.13,4.86h2.75V15.92H70.13Z"/><path class="cls-1" d="M86.3,9.56v1.67H81.6v4.69H79.15V11.23H74.46V9.56h4.69V4.86H81.6v4.7Z"/></g></g></g></svg>